# Blender v2.79 (sub 7) OBJ File: 'arrow.blend'
# www.blender.org
o Cube
v 1.000000 -2.000000 -1.000000
v 1.000000 -2.000000 1.000000
v -1.000000 -2.000000 1.000000
v -1.000000 -2.000000 -1.000000
v 1.000000 1.000000 -0.999999
v 0.999999 1.000000 1.000001
v -1.000000 1.000000 1.000000
v -1.000000 1.000000 -1.000000
v 1.668187 1.000000 -1.668185
v 1.668185 1.000000 1.668187
v -1.668186 1.000000 -1.668186
v -1.668187 1.000000 1.668185
v -0.000000 4.000000 0.000000
vn 0.0000 -1.0000 0.0000
vn 1.0000 -0.0000 0.0000
vn 0.0000 -0.0000 1.0000
vn -1.0000 -0.0000 -0.0000
vn 0.0000 0.0000 -1.0000
vn -0.8740 0.4860 -0.0000
vn 0.0000 0.4860 -0.8740
vn -0.0000 0.4860 0.8740
vn 0.8740 0.4860 0.0000
s off
f 2//1 4//1 1//1
f 8//1 12//1 11//1
f 5//2 2//2 1//2
f 6//3 3//3 2//3
f 7//4 4//4 3//4
f 1//5 8//5 5//5
f 11//6 12//6 13//6
f 5//1 11//1 9//1
f 6//1 12//1 7//1
f 5//1 10//1 6//1
f 9//7 11//7 13//7
f 12//8 10//8 13//8
f 10//9 9//9 13//9
f 2//1 3//1 4//1
f 8//1 7//1 12//1
f 5//2 6//2 2//2
f 6//3 7//3 3//3
f 7//4 8//4 4//4
f 1//5 4//5 8//5
f 5//1 8//1 11//1
f 6//1 10//1 12//1
f 5//1 9//1 10//1
