# Blender v2.79 (sub 7) OBJ File: 'bird.blend'
# www.blender.org
o bird_Cube
v 0.990397 -0.152119 -1.000000
v 0.990397 -0.077510 1.000000
v 0.990397 0.252119 -1.000000
v 0.990396 0.177510 1.000000
v 0.990396 -0.169026 3.000000
v 0.990395 0.269025 3.000000
v 0.246214 0.005049 5.000000
v 0.246213 0.094950 5.000000
v 3.479203 -0.081194 0.016669
v 3.479203 0.181197 0.016669
v 3.479202 -0.065528 2.016669
v 3.479202 0.165530 2.016669
v 4.997015 0.012238 -1.983330
v 4.997015 0.087765 -1.983330
v 4.997015 -0.009587 0.016670
v 4.997015 0.109590 0.016670
v 2.140557 -0.018401 -2.455153
v 2.140558 0.118403 -2.455153
v -0.990397 -0.152119 -1.000000
v -0.990397 -0.077510 1.000000
v 0.000000 -0.400000 1.000000
v 0.000000 -0.400000 -1.000000
v -0.990397 0.252119 -1.000000
v -0.990396 0.177510 1.000000
v 0.000000 0.500000 1.000000
v 0.000000 0.500000 -1.000000
v -0.990396 -0.169026 3.000000
v 0.000000 -0.400000 3.000000
v -0.990395 0.269025 3.000000
v 0.000000 0.500000 3.000000
v -0.246214 0.005049 5.000000
v 0.000000 -0.022251 5.000000
v -0.246213 0.094950 5.000000
v 0.000000 0.122251 5.000000
v -3.479203 -0.081194 0.016669
v -3.479203 0.181197 0.016669
v -3.479202 -0.065528 2.016669
v -3.479202 0.165530 2.016669
v -4.997015 0.012238 -1.983330
v -4.997015 0.087765 -1.983330
v -4.997015 -0.009587 0.016670
v -4.997015 0.109590 0.016670
v -2.140557 -0.018401 -2.455153
v 0.000000 -0.018401 -2.455153
v -2.140558 0.118403 -2.455153
v 0.000000 0.118403 -2.455153
vn 0.2428 -0.9701 0.0000
vn 0.3094 0.9503 0.0354
vn 1.0000 -0.0000 0.0000
vn 0.2353 0.9401 -0.2465
vn 0.2239 0.9602 0.1669
vn 0.0235 -0.9987 -0.0457
vn 0.2271 -0.9739 -0.0000
vn 0.3093 0.9500 -0.0435
vn 0.0000 0.0000 1.0000
vn 0.9372 0.0000 0.3487
vn 0.1083 -0.9768 0.1845
vn 0.0471 0.9988 -0.0109
vn -0.3675 0.0000 -0.9300
vn 0.3675 0.0000 0.9300
vn 0.0016 1.0000 0.0078
vn -0.7966 0.0000 -0.6045
vn 0.0471 -0.9989 0.0078
vn 0.7966 0.0000 0.6045
vn 0.0000 0.0000 -1.0000
vn 0.0000 -0.9958 -0.0915
vn 0.7845 -0.0000 0.6201
vn -0.3094 -0.9503 0.0354
vn -0.2428 0.9701 0.0000
vn -1.0000 -0.0000 0.0000
vn -0.2353 0.9401 -0.2465
vn -0.2239 0.9602 0.1669
vn -0.0235 -0.9987 -0.0457
vn -0.3093 -0.9500 -0.0435
vn -0.3093 0.9500 -0.0435
vn -0.9372 0.0000 0.3487
vn -0.2239 -0.9602 0.1669
vn -0.0471 0.9989 0.0078
vn 0.3675 0.0000 -0.9300
vn -0.3675 0.0000 0.9300
vn -0.0235 0.9987 -0.0457
vn 0.7966 -0.0000 -0.6045
vn -0.0471 -0.9989 0.0078
vn -0.7966 -0.0000 0.6045
vn -0.2353 -0.9401 -0.2465
vn -0.7845 -0.0000 0.6201
vn 0.3094 -0.9503 0.0354
vn 0.2428 0.9701 0.0000
vn 0.0000 0.9958 -0.0915
vn 0.1083 0.9768 0.1845
vn 0.0016 -1.0000 0.0078
vn 0.3093 -0.9500 -0.0435
vn 0.2271 0.9739 0.0000
vn 0.2239 -0.9602 0.1669
vn 0.0471 0.9989 0.0078
vn 0.0235 0.9987 -0.0457
vn 0.0471 -0.9988 -0.0109
vn 0.2353 -0.9401 -0.2465
vn -0.2428 -0.9701 0.0000
vn -0.3094 0.9503 0.0354
vn -0.1083 0.9768 0.1845
vn -0.0016 -1.0000 0.0078
vn -0.2271 -0.9739 -0.0000
vn -0.2271 0.9739 0.0000
vn -0.1083 -0.9768 0.1845
vn -0.0471 0.9988 -0.0109
vn -0.0016 1.0000 0.0078
vn -0.0471 -0.9988 -0.0109
s off
f 1//1 21//1 22//1
f 3//2 25//2 4//2
f 3//3 2//3 1//3
f 3//4 46//4 26//4
f 30//5 8//5 6//5
f 2//6 11//6 5//6
f 21//7 5//7 28//7
f 25//8 6//8 4//8
f 8//9 32//9 7//9
f 6//10 7//10 5//10
f 28//11 7//11 32//11
f 10//12 16//12 14//12
f 2//13 10//13 9//13
f 5//14 12//14 6//14
f 4//15 12//15 10//15
f 14//3 15//3 13//3
f 9//16 14//16 13//16
f 9//17 15//17 11//17
f 11//18 16//18 12//18
f 17//19 46//19 18//19
f 1//20 44//20 17//20
f 3//21 17//21 18//21
f 19//22 21//22 20//22
f 23//23 25//23 26//23
f 20//24 23//24 19//24
f 30//3 21//3 25//3
f 46//25 23//25 26//25
f 33//26 30//26 29//26
f 37//27 20//27 27//27
f 21//28 27//28 20//28
f 29//29 25//29 24//29
f 32//9 33//9 31//9
f 31//30 29//30 27//30
f 34//3 28//3 30//3
f 28//31 31//31 27//31
f 36//32 42//32 38//32
f 20//33 36//33 24//33
f 38//34 27//34 29//34
f 24//35 38//35 29//35
f 41//24 40//24 39//24
f 35//36 40//36 36//36
f 41//37 35//37 37//37
f 42//38 37//38 38//38
f 46//19 43//19 45//19
f 19//39 44//39 22//39
f 23//40 43//40 19//40
f 1//41 2//41 21//41
f 3//42 26//42 25//42
f 3//3 4//3 2//3
f 3//43 18//43 46//43
f 30//44 34//44 8//44
f 2//45 9//45 11//45
f 21//46 2//46 5//46
f 25//47 30//47 6//47
f 8//9 34//9 32//9
f 6//10 8//10 7//10
f 28//48 5//48 7//48
f 10//49 12//49 16//49
f 2//13 4//13 10//13
f 5//14 11//14 12//14
f 4//50 6//50 12//50
f 14//3 16//3 15//3
f 9//16 10//16 14//16
f 9//51 13//51 15//51
f 11//18 15//18 16//18
f 17//19 44//19 46//19
f 1//52 22//52 44//52
f 3//21 1//21 17//21
f 19//53 22//53 21//53
f 23//54 24//54 25//54
f 20//24 24//24 23//24
f 30//3 28//3 21//3
f 46//43 45//43 23//43
f 33//55 34//55 30//55
f 37//56 35//56 20//56
f 21//57 28//57 27//57
f 29//58 30//58 25//58
f 32//9 34//9 33//9
f 31//30 33//30 29//30
f 34//3 32//3 28//3
f 28//59 32//59 31//59
f 36//60 40//60 42//60
f 20//33 35//33 36//33
f 38//34 37//34 27//34
f 24//61 36//61 38//61
f 41//24 42//24 40//24
f 35//36 39//36 40//36
f 41//62 39//62 35//62
f 42//38 41//38 37//38
f 46//19 44//19 43//19
f 19//20 43//20 44//20
f 23//40 45//40 43//40
